# xmcd CD database file
#
# Track frame offsets:
#	150
#	32779
#	66249
#	105812
#	132461
#	148892
#	181666
#
# Disc length: 2873 seconds
#
# Revision: 0
# Processed by: cddbd v1.5.2PL0 Copyright (c) Steve Scherf et al.
# Submitted via: CDex 1.77
#
DISCID=5e0b3707
DTITLE=Rebirth::Collective - Raincheck
DYEAR=2015
DGENRE=Jazz
TTITLE0=Isfahan
TTITLE1=UMMG
TTITLE2=Chelsea Bridge
TTITLE3=Raincheck
TTITLE4=Johnny come lately
TTITLE5=Lush life
TTITLE6=Satin doll
EXTD=YEAR: 2015
EXTT0=
EXTT1=
EXTT2=
EXTT3=
EXTT4=
EXTT5=
EXTT6=
PLAYORDER=
